<svg width="501" height="361" viewBox="0 0 501 361" fill="none" xmlns="http://www.w3.org/2000/svg">
<path d="M20.4996 79.125L42.4996 72.125L61.9996 105.625M205 12.5L238.5 4.12498L270 54.5M391 112.625L414.5 107.125L440 143.625" stroke="#EFEEED" stroke-width="0.5"/>
<path d="M235.5 1C235.5 0.447715 235.947 0 236.5 0H240.5C241.052 0 241.5 0.447715 241.5 1V9.6875V19.375V58.125V135.625V290.625H235.5V135.625V58.125V19.375V9.6875V1Z" fill="#D9B07E"/>
<path d="M411.5 105.625C411.5 105.073 411.947 104.625 412.5 104.625H416.5C417.052 104.625 417.5 105.073 417.5 105.625V290.625H411.5V105.625Z" fill="#D9B07E"/>
<path d="M39.4996 70.625C39.4996 70.0727 39.9473 69.625 40.4996 69.625H44.4996C45.0519 69.625 45.4996 70.0727 45.4996 70.625V255.625H39.4996V70.625Z" fill="#D9B07E"/>
<path d="M241.5 218.362L235.5 222.305V224.699L241.5 220.755V218.362Z" fill="#A77E65"/>
<path d="M417.5 258.648L411.5 262.453V264.821L417.5 261.016V258.648Z" fill="#A77E65"/>
<path d="M39.4996 215.987V213.645L45.4996 209.99V212.332L39.4996 215.987Z" fill="#A77E65"/>
<path d="M62.3953 106.375L18.9996 79C18.9996 79 31.345 123.358 31.345 152C31.345 180.642 18.9996 225 18.9996 225L62.3953 197.625C62.3953 197.625 70.9996 169.969 70.9996 152C70.9996 134.031 62.3953 106.375 62.3953 106.375Z" fill="#EFEEED"/>
<path d="M269.928 54.9375L204 12C204 12 222.755 81.5753 222.755 126.5C222.755 171.425 204 241 204 241L269.928 198.062C269.928 198.062 283 154.684 283 126.5C283 98.3157 269.928 54.9375 269.928 54.9375Z" fill="#EFEEED"/>
<path d="M439.403 143.625L391 113.625C391 113.625 404.77 162.237 404.77 193.625C404.77 225.013 391 273.625 391 273.625L439.403 243.625C439.403 243.625 449 213.317 449 193.625C449 173.933 439.403 143.625 439.403 143.625Z" fill="#EFEEED"/>
<path d="M62.4996 105.5L19.9996 79M19.4996 225L62.9996 198.5" stroke="#D9B07E" stroke-width="2" stroke-linecap="round"/>
<path d="M270.689 55.1632L204 12M204.31 242L270.5 198.5" stroke="#D9B07E" stroke-width="2" stroke-linecap="round"/>
<path d="M440 143.625L391.018 112.564M391.018 274.625L440 243.564" stroke="#D9B07E" stroke-width="2" stroke-linecap="round"/>
<path d="M64.8523 343L41.9996 361C41.9996 361 71.3238 361.074 89.9163 358.796C116.634 355.521 157 343 157 343H64.8523Z" fill="#662B2B"/>
<path d="M202 289V254M226 254V289M250 254V289M274 254V289M298 254V290M81 213V245M105 213V245M129 213V245M153 213V245" stroke="#D9B07E" stroke-width="3"/>
<path d="M226 254V258M250 254V258M274 254V258.375M298 254V258.5M81 213V217M105 213V217M129 213V217M153 213V217M202 254V258" stroke="#A77E65" stroke-width="3"/>
<path d="M76 245H283L309 254H178H132.5H76V245Z" fill="#A26640"/>
<path d="M177.5 254.5V280.107L135.771 254.5H177.5Z" fill="#723E30" stroke="#572A1D"/>
<path d="M86.5 204H147.5L167 213H67L86.5 204Z" fill="#A26640"/>
<path d="M211.997 343.526C211.997 343.026 211.997 343.026 211.997 343.026H211.996H211.995H211.993H211.991H211.988H211.984H211.98H211.975H211.97H211.965H211.958H211.952H211.944H211.936H211.928H211.919H211.91H211.9H211.889H211.878H211.867H211.855H211.842H211.829H211.816H211.801H211.787H211.772H211.756H211.74H211.723H211.706H211.688H211.67H211.651H211.631H211.612H211.591H211.57H211.549H211.527H211.505H211.482H211.458H211.435H211.41H211.385H211.36H211.334H211.307H211.28H211.253H211.225H211.197H211.168H211.138H211.108H211.078H211.047H211.016H210.984H210.951H210.919H210.885H210.851H210.817H210.782H210.747H210.711H210.675H210.638H210.601H210.563H210.525H210.486H210.447H210.407H210.367H210.326H210.285H210.244H210.202H210.159H210.116H210.073H210.029H209.984H209.939H209.894H209.848H209.802H209.755H209.708H209.66H209.612H209.564H209.515H209.465H209.415H209.365H209.314H209.262H209.211H209.158H209.106H209.052H208.999H208.945H208.89H208.835H208.78H208.724H208.667H208.611H208.553H208.496H208.438H208.379H208.32H208.261H208.201H208.14H208.08H208.018H207.957H207.895H207.832H207.769H207.706H207.642H207.578H207.513H207.448H207.382H207.316H207.25H207.183H207.116H207.048H206.98H206.912H206.843H206.773H206.704H206.633H206.563H206.492H206.42H206.348H206.276H206.203H206.13H206.057H205.983H205.908H205.833H205.758H205.683H205.607H205.53H205.453H205.376H205.299H205.22H205.142H205.063H204.984H204.904H204.824H204.744H204.663H204.582H204.5H204.418H204.336H204.253H204.17H204.086H204.002H203.918H203.833H203.748H203.662H203.576H203.49H203.403H203.316H203.228H203.141H203.052H202.964H202.875H202.785H202.696H202.605H202.515H202.424H202.333H202.241H202.149H202.057H201.964H201.871H201.777H201.683H201.589H201.495H201.4H201.304H201.209H201.112H201.016H200.919H200.822H200.725H200.627H200.528H200.43H200.331H200.232H200.132H200.032H199.932H199.831H199.73H199.628H199.527H199.424H199.322H199.219H199.116H199.012H198.909H198.804H198.7H198.595H198.49H198.384H198.278H198.172H198.065H197.959H197.851H197.744H197.636H197.528H197.419H197.31H197.201H197.091H196.981H196.871H196.76H196.65H196.538H196.427H196.315H196.203H196.09H195.977H195.864H195.751H195.637H195.523H195.408H195.294H195.179H195.063H194.947H194.831H194.715H194.598H194.482H194.364H194.247H194.129H194.011H193.892H193.773H193.654H193.535H193.415H193.295H193.175H193.054H192.933H192.812H192.691H192.569H192.447H192.324H192.202H192.079H191.956H191.832H191.708H191.584H191.46H191.335H191.21H191.085H190.959H190.833H190.707H190.581H190.454H190.327H190.2H190.072H189.944H189.816H189.688H189.559H189.43H189.301H189.171H189.042H188.912H188.781H188.651H188.52H188.389H188.257H188.126H187.994H187.862H187.729H187.597H187.464H187.33H187.197H187.063H186.929H186.795H186.66H186.526H186.391H186.255H186.12H185.984H185.848H185.712H185.575H185.438H185.301H185.164H185.027H184.889H184.751H184.612H184.474H184.335H184.196H184.057H183.917H183.778H183.638H183.498H183.357H183.216H183.076H182.934H182.793H182.651H182.51H182.368H182.225H182.083H181.94H181.797H181.654H181.51H181.367H181.223H181.079H180.934H180.79H180.645H180.5H180.355H180.21H180.064H179.918H179.772H179.626H179.479H179.333H179.186H179.038H178.891H178.744H178.596H178.448H178.3H178.151H178.003H177.854H177.705H177.556H177.406H177.257H177.107H176.957H176.807H176.656H176.506H176.355H176.204H176.053H175.902H175.75H175.598H175.446H175.294H175.142H174.989H174.837H174.684H174.531H174.378H174.224H174.071H173.917H173.763H173.609H173.454H173.3H173.145H172.99H172.835H172.68H172.525H172.369H172.213H172.058H171.901H171.745H171.589H171.432H171.276H171.119H170.962H170.804H170.647H170.489H170.332H170.174H170.016H169.857H169.699H169.541H169.382H169.223H169.064H168.905H168.746H168.586H168.427H168.267H168.107H167.947H167.787H167.626H167.466H167.305H167.145H166.984H166.823H166.661H166.5H166.338H166.177H166.015H165.853H165.691H165.529H165.367H165.204H165.042H164.879H164.716H164.553H164.39H164.227H164.063H163.9H163.736H163.573H163.409H163.245H163.081H162.916H162.752H162.587H162.423H162.258H162.093H161.928H161.763H161.598H161.433H161.267H161.102H160.936H160.77H160.605H160.439H160.273H160.106H159.94H159.774H159.556H159.339H159.121H158.904H158.686H158.467H158.249H158.031H157.812H157.593H157.374H157.155H156.936H156.716H156.497H156.277H156.057H155.837H155.617H155.397H155.176H154.956H154.735H154.514H154.293H154.072H153.851H153.629H153.408H153.186H152.964H152.743H152.521H152.299H152.076H151.854H151.632H151.409H151.186H150.964H150.741H150.518H150.295H150.072H149.848H149.625H149.401H149.178H148.954H148.731H148.507H148.283H148.059H147.835H147.611H147.387H147.162H146.938H146.714H146.489H146.265H146.04H145.816H145.591H145.366H145.141H144.916H144.692H144.467H144.242H144.017H143.791H143.566H143.341H143.116H142.891H142.665H142.44H142.215H141.989H141.764H141.539H141.313H141.088H140.862H140.637H140.411H140.186H139.96H139.734H139.509H139.283H139.058H138.832H138.607H138.381H138.156H137.93H137.704H137.479H137.253H137.028H136.802H136.577H136.351H136.126H135.901H135.675H135.45H135.225H134.999H134.774H134.549H134.324H134.098H133.873H133.648H133.423H133.198H132.973H132.748H132.524H132.299H132.074H131.849H131.625H131.4H131.176H130.951H130.727H130.503H130.278H130.054H129.83H129.606H129.382H129.159H128.935H128.711H128.488H128.264H128.041H127.817H127.594H127.371H127.148H126.925H126.702H126.48H126.257H126.035H125.812H125.59H125.368H125.146H124.924H124.702H124.48H124.259H124.037H123.816H123.595H123.374H123.153H122.932H122.712H122.491H122.271H122.05H121.83H121.61H121.391H121.171H120.951H120.732H120.513H120.294H120.075H119.856H119.638H119.419H119.201H118.983H118.765H118.548H118.33H118.113H117.896H117.679H117.462H117.245H117.029H116.812H116.596H116.38H116.165H115.949H115.734H115.519H115.304H115.089H114.875H114.661H114.447H114.233H114.019H113.806H113.592H113.379H113.167H112.954H112.742H112.53H112.318H112.106H111.895H111.684H111.473H111.262H111.051H110.841H110.631H110.422H110.212H110.003H109.794H109.585H109.377H109.168H108.96H108.753H108.545H108.338H108.131H107.924H107.718H107.512H107.306H107.101H106.895H106.69H106.486H106.281H106.077H105.873H105.67H105.466H105.263H105.061H104.858H104.656H104.454H104.253H104.052H103.851H103.65H103.45H103.25H103.05H102.851H102.652H102.453H102.255H102.057H101.859H101.662H101.465H101.268H101.071H100.875H100.68H100.484H100.289H100.094H99.9001H99.7061H99.5124H99.3191H99.1261H98.9335H98.7412H98.5493H98.3578H98.1666H97.9757H97.7853H97.5952H97.4055H97.2161H97.0271H96.8385H96.6503H96.4625H96.275H96.0879H95.9012H95.7149H95.529H95.3434H95.1583H94.9735H94.7892H94.6052H94.4217H94.2385H94.0558H93.8734H93.6915H93.5099H93.3288H93.1481H92.9678H92.7879H92.6085H92.4294H92.2508H92.0726H91.8949H91.7175H91.5406H91.3642H91.1881H91.0125H90.8373H90.6626H90.4883H90.3145H90.1411H89.9681H89.7956H89.6236H89.452H89.2809H89.1102H88.9399H88.7702H88.6009H88.432H88.2637H88.0958H87.9283H87.7614H87.5949H87.4289H87.2634H87.0983H86.9337H86.7696H86.606H86.4429H86.2803H86.1182H85.9565H85.7954H85.6347H85.4746H85.3149H85.1558H84.9971H84.839H84.6814H84.5242H84.3676H84.2115H84.056H83.9009H83.7464H83.5924H83.4389H83.2859H83.1335H82.9815H82.8302H82.6793H82.529H82.3792H82.23H82.0813H81.9332H81.7856H81.6385H81.492H81.346H81.2006H81.0558H80.9115H80.7677H80.6245H80.4819H80.3399H80.1984H80.0574H79.9171H79.7773H79.6381H79.4995H79.3614H79.2239H79.087H78.9507H78.815H78.6799H78.5453H78.4113H78.278H78.1452H78.013H77.8814H77.7505H77.6201H77.4903H77.3611H77.2326H77.1046H76.9773H76.8505H76.7244H76.5989H76.4741H76.3498H76.2262H76.1032H75.9808H75.859H75.7379H75.6174H75.4976H75.3783H75.2598H75.1418H75.0245H74.9079H74.7919H74.6765H74.5618H74.4477H74.3343H74.2216H74.1095H73.998H73.8873H73.7772H73.6677H73.5589H73.4508H73.3434H73.2366H73.1305H73.0251H72.9204H72.8163H72.7129H72.6102H72.5082H72.4069H72.3063H72.2064H72.1071H72.0086H71.9107H71.8136H71.7171H71.6214H71.5263H71.432H71.3384H71.2455H71.1533H71.0618H70.971H70.8809H70.7916H70.703H70.6151H70.5279H70.4415H70.3558H70.2708H70.1866H70.1031H70.0203H69.9383H69.857H69.7765H69.6967H69.6176H69.5393H69.4618H69.385H69.309H69.2337H69.1591H69.0854H69.0124H68.9401H68.8687H68.798H68.728H68.6589H68.5905H68.5229H68.456H68.39H68.3247H68.2602H68.1965H68.1336H68.0714H68.0101H67.9495H67.8898H67.8308C65.7682 343.026 63.443 342.095 60.9261 340.383C58.7745 338.92 56.5172 336.91 54.2096 334.5H394.109C385.877 335.71 376.567 336.81 366.581 337.798C341.611 340.267 312.475 342.025 285.533 343.026C271.195 343.559 252.816 343.559 238.016 343.426C230.617 343.359 224.115 343.259 219.463 343.176C217.137 343.134 215.273 343.097 213.991 343.07C213.35 343.056 212.855 343.045 212.519 343.038L212.138 343.029L212.042 343.027L212.017 343.026L212.011 343.026L212.01 343.026C212.009 343.026 212.009 343.026 211.997 343.526ZM211.997 343.526V343.026H212.009L211.997 343.526ZM53.5117 333.5V333.761C53.3587 333.596 53.2055 333.43 53.0522 333.263C50.9286 330.941 48.7786 328.314 46.645 325.5H428.406C426.354 326.677 424.391 327.635 422.556 328.322C417.515 330.207 409.915 331.936 400.511 333.5H53.5117ZM430.037 324.5H45.8933C43.9876 321.944 42.0992 319.249 40.2586 316.5H441.183C440.755 316.846 440.328 317.187 439.901 317.525C436.516 320.202 433.186 322.597 430.037 324.531V324.5ZM442.408 315.5H39.5926C38.7126 314.172 37.8446 312.833 36.992 311.494C36.1421 310.16 35.3078 308.825 34.4924 307.5H451.553C448.556 310.261 445.476 312.973 442.408 315.5ZM452.634 306.5H33.8797C32.2037 303.754 30.6135 301.059 29.1397 298.5H460.92C460.045 299.374 459.15 300.258 458.239 301.149C456.426 302.921 454.549 304.717 452.634 306.5ZM461.919 297.5H28.5656C26.9465 294.67 25.479 292.025 24.2064 289.687C24.1723 289.624 24.1384 289.562 24.1047 289.5H213.585H213.598H296.525H296.536H469.459V288.5H307.04C313.712 287.523 319.392 286.034 323.802 284.601C327.088 283.532 329.67 282.495 331.433 281.724C332.314 281.338 332.991 281.019 333.448 280.795C333.677 280.683 333.851 280.595 333.969 280.535C333.994 280.522 334.017 280.51 334.037 280.5H382.276H477.895C477.666 280.76 477.384 281.077 477.054 281.448C476.04 282.584 474.568 284.217 472.737 286.201C469.879 289.298 466.147 293.248 461.919 297.5ZM204.068 288.5H23.5629C22.2404 286.051 21.1626 283.998 20.3869 282.5C19.9421 281.64 19.5966 280.964 19.3613 280.5H28.5482H178.407C178.427 280.51 178.449 280.522 178.475 280.535C178.592 280.595 178.765 280.683 178.992 280.794C179.446 281.018 180.115 281.337 180.979 281.722C182.709 282.493 185.223 283.53 188.366 284.598C192.586 286.032 197.944 287.523 204.068 288.5ZM28.5482 279.5H18.9059L16.1476 271.5H163.623L176.749 279.5H28.5482ZM161.982 270.5H15.8028L13.0445 262.5H148.856L161.982 270.5ZM147.215 261.5H12.6997L9.94144 253.5H109.506H134.089L147.215 261.5ZM109.506 252.5H9.59665L6.83836 244.5H79.8854L83.6021 249.383L83.7396 249.564L83.9661 249.579L126.953 252.5H109.506ZM79.1243 243.5H6.49357L3.73527 235.5H73.0355L79.1243 243.5ZM72.2744 234.5H3.39049L2.70091 232.5H70.7522L72.2744 234.5Z" fill="#723E30" stroke="#572A1D"/>
<path d="M461.5 236.5C461.5 236.5 461.315 241.577 462 245C463 250 465.979 254.336 465.979 254.336C465.979 254.336 471.049 254.5 472 253C472.951 251.5 472.5 249.433 472.5 249.433C471.673 247.245 470.442 245.88 468.857 244.121C468.284 243.485 467.664 242.797 467 242C464.923 239.509 461.5 236.5 461.5 236.5Z" fill="#D4AF37"/>
<path d="M484.53 265.621C484.53 265.621 489.179 264.206 491.737 262.518C494.445 260.731 496.057 259.532 497.698 256.734C498.684 255.052 499.5 252.079 499.5 252.079C499.5 252.079 496.32 252.541 494.371 252.079C492.165 251.556 491.142 249.978 490.087 248.353C489.147 246.903 488.181 245.416 486.332 244.602C483.803 243.491 477 243 477 243C477 243 475.474 243.15 471.034 240.562C467.5 238.5 461.5 236.5 461.5 236.5C461.5 236.5 464.923 239.509 467 242C467.664 242.797 468.284 243.485 468.857 244.121C470.442 245.88 471.673 247.245 472.5 249.433C472.5 249.433 472.951 251.5 472 253C471.049 254.5 465.979 254.336 465.979 254.336C465.979 254.336 467.156 255.868 468.034 256.734C469.563 258.241 472.47 259.978 472.47 259.978C472.47 259.978 471.8 263.742 470.391 265.621C468.604 268.005 465.902 267.462 463.117 266.903C460.483 266.375 457.774 265.831 455.698 267.737C443.5 278.933 429.5 279.392 429.5 279.392H381.452L333.09 279.433C333.09 279.433 325.497 283.975 314.5 286.65H369.751H461.3C461.3 286.65 435.345 316.666 415.916 322.856C396.486 329.046 331.349 333.089 280.502 334.698C253.425 335.555 211.111 334.698 211.111 334.698H161.843H72.1049C55.4511 334.698 28 280.474 28 280.474L15.4 244H46.5979H80L71 232.474H1.15295L17.7027 280.474C17.7027 280.474 49.3312 344 66.9842 344H158.927H211.151C211.151 344 256.004 345.066 284.705 344C338.603 341.997 401.289 336.967 421.884 329.264C442.479 321.561 478.153 280.433 478.153 280.433C478.153 280.433 481.218 276.109 482.5 273C483.639 270.237 484.53 265.621 484.53 265.621Z" fill="#D4AF37"/>
<path d="M461.5 236.5C461.5 236.5 467.5 238.5 471.034 240.562C475.474 243.15 477 243 477 243C477 243 483.803 243.491 486.332 244.602C488.181 245.416 489.147 246.903 490.087 248.353C491.142 249.978 492.165 251.556 494.371 252.079C496.32 252.541 499.5 252.079 499.5 252.079C499.5 252.079 498.684 255.052 497.698 256.734C496.057 259.532 494.445 260.731 491.737 262.518C489.179 264.206 484.53 265.621 484.53 265.621C484.53 265.621 483.639 270.237 482.5 273C481.218 276.109 478.153 280.433 478.153 280.433C478.153 280.433 442.479 321.561 421.884 329.264C401.289 336.967 338.603 341.997 284.705 344C256.004 345.066 211.151 344 211.151 344M461.5 236.5C461.5 236.5 461.315 241.577 462 245C463 250 465.979 254.336 465.979 254.336M461.5 236.5C461.5 236.5 464.923 239.509 467 242C467.664 242.797 468.284 243.485 468.857 244.121C470.442 245.88 471.673 247.245 472.5 249.433C472.5 249.433 472.951 251.5 472 253C471.049 254.5 465.979 254.336 465.979 254.336M465.979 254.336C465.979 254.336 467.156 255.868 468.034 256.734C469.563 258.241 472.47 259.978 472.47 259.978C472.47 259.978 471.8 263.742 470.391 265.621C468.604 268.005 465.902 267.462 463.117 266.903C460.483 266.375 457.774 265.831 455.698 267.737C443.5 278.933 429.5 279.392 429.5 279.392H381.452L333.09 279.433C333.09 279.433 325.497 283.975 314.5 286.65H369.751H461.3C461.3 286.65 435.345 316.666 415.916 322.856C396.486 329.046 331.349 333.089 280.502 334.698C253.425 335.555 211.111 334.698 211.111 334.698H161.843H72.1049C55.4511 334.698 28 280.474 28 280.474L15.4 244H46.5979H80L71 232.474H1.15295L17.7027 280.474C17.7027 280.474 49.3312 344 66.9842 344M211.151 344C211.151 344 187.335 344 158.927 344M211.151 344H158.927M66.9842 344C76.9779 344 121.861 344 158.927 344M66.9842 344H158.927" stroke="#BA951F"/>
<path d="M461.5 236.5C461.5 236.5 461.153 242.113 462 245.5C463.5 251.5 466.5 255 466.5 255C466.5 255 471.549 254.664 472.5 253.164C473.451 251.664 473 249.597 473 249.597C471.874 246.618 470 245.164 467.5 242.164C465.424 239.673 461.5 236.5 461.5 236.5Z" fill="#BA951F"/>
<rect x="235.5" y="254" width="6" height="4" fill="#A77E65"/>
</svg>
