<svg width="1900" height="1090" viewBox="0 0 1900 1090" fill="none" xmlns="http://www.w3.org/2000/svg">
<g clip-path="url(#clip0_25_49)">
<rect width="1900" height="1090" fill="#77B5FE"/>
<circle cx="950" cy="597" r="600" fill="url(#paint0_radial_25_49)"/>
<rect width="1900" height="292" transform="matrix(1 0 0 -1 0 666)" fill="url(#paint1_linear_25_49)"/>
<circle cx="952" cy="599" r="225" fill="#F8C969"/>
<path d="M1900 847H0V596.407C0 596.407 138.205 608.404 225 596.407C421.5 569.244 500 691.913 696.5 633.645C794.846 604.483 848.801 579.224 952 569.244C1137.75 551.282 1234.23 646.862 1421 652.484C1609.61 658.161 1900 596.407 1900 596.407V847Z" fill="#5C9BE1"/>
<path d="M1900 877H0V626.407C0 626.407 138.205 638.404 225 626.407C421.5 599.244 500 721.913 696.5 663.645C794.846 634.483 848.801 609.224 952 599.244C1137.75 581.282 1234.23 676.862 1421 682.484C1609.61 688.161 1900 626.407 1900 626.407V877Z" fill="#5495DD"/>
<path d="M1900 907H0V656.407C0 656.407 138.205 668.404 225 656.407C421.5 629.244 500 751.913 696.5 693.645C794.846 664.483 848.801 639.224 952 629.244C1137.75 611.282 1234.23 706.862 1421 712.484C1609.61 718.161 1900 656.407 1900 656.407V907Z" fill="#488CD8"/>
<path d="M1900 924.63H0V674.037C0 674.037 252.464 715.909 334.5 685.13C673 558.13 488.5 730.114 696.5 711.275C798.661 702.023 833.5 660.275 951.5 711.275C1122.8 785.312 1339.5 765.13 1421 730.114C1699.71 610.365 1900 674.037 1900 674.037V924.63Z" fill="#619FE4"/>
<path d="M1900 954.63H0V704.037C0 704.037 252.464 745.909 334.5 715.13C673 588.13 488.5 760.114 696.5 741.275C798.661 732.023 833.5 690.275 951.5 741.275C1122.8 815.312 1339.5 795.13 1421 760.114C1699.71 640.365 1900 704.037 1900 704.037V954.63Z" fill="#5C9BE1"/>
<path d="M1900 984.63H0V734.037C0 734.037 252.464 775.909 334.5 745.13C673 618.13 488.5 790.114 696.5 771.275C798.661 762.023 833.5 720.275 951.5 771.275C1122.8 845.312 1339.5 825.13 1421 790.114C1699.71 670.365 1900 734.037 1900 734.037V984.63Z" fill="#5495DD"/>
<path d="M1900 1015H0V764.407C0 764.407 138.205 776.404 225 764.407C421.5 737.244 500 859.913 696.5 801.645C794.846 772.483 848.801 747.224 952 737.244C1137.75 719.282 1234.23 814.862 1421 820.484C1609.61 826.161 1900 764.407 1900 764.407V1015Z" fill="#6DAAEE"/>
<path d="M1900 1045H0V794.407C0 794.407 138.205 806.404 225 794.407C421.5 767.244 500 889.913 696.5 831.645C794.846 802.483 848.801 777.224 952 767.244C1137.75 749.282 1234.23 844.862 1421 850.484C1609.61 856.161 1900 794.407 1900 794.407V1045Z" fill="#619FE4"/>
<path d="M1900 1075H0V824.407C0 824.407 138.205 836.404 225 824.407C421.5 797.244 500 919.913 696.5 861.645C794.846 832.483 848.801 807.224 952 797.244C1137.75 779.282 1234.23 874.862 1421 880.484C1609.61 886.161 1900 824.407 1900 824.407V1075Z" fill="#5C9BE1"/>
<path d="M0 1090H1900V839.407C1900 839.407 1761.79 851.404 1675 839.407C1478.5 812.244 1400 934.913 1203.5 876.645C1105.15 847.483 1051.2 822.224 948 812.244C762.252 794.282 665.765 889.862 479 895.484C290.388 901.161 0 839.407 0 839.407V1090Z" fill="#7DB5F4"/>
<path d="M0 1120H1900V869.407C1900 869.407 1761.79 881.404 1675 869.407C1478.5 842.244 1400 964.913 1203.5 906.645C1105.15 877.483 1051.2 852.224 948 842.244C762.252 824.282 665.765 919.862 479 925.484C290.388 931.161 0 869.407 0 869.407V1120Z" fill="#6DAAEE"/>
<path d="M0 1150H1900V899.407C1900 899.407 1761.79 911.404 1675 899.407C1478.5 872.244 1400 994.913 1203.5 936.645C1105.15 907.483 1051.2 882.224 948 872.244C762.252 854.282 665.765 949.862 479 955.484C290.388 961.161 0 899.407 0 899.407V1150Z" fill="#619FE4"/>
</g>
<defs>
<radialGradient id="paint0_radial_25_49" cx="0" cy="0" r="1" gradientUnits="userSpaceOnUse" gradientTransform="translate(950 597) rotate(90) scale(600)">
<stop stop-color="#E3DDCD" stop-opacity="0.3"/>
<stop offset="1" stop-color="#E3DDCD" stop-opacity="0"/>
</radialGradient>
<linearGradient id="paint1_linear_25_49" x1="950" y1="0" x2="950" y2="292" gradientUnits="userSpaceOnUse">
<stop stop-color="#F8F3E7" stop-opacity="0.21"/>
<stop offset="1" stop-color="#E3DDCD" stop-opacity="0"/>
</linearGradient>
<clipPath id="clip0_25_49">
<rect width="1900" height="1090" fill="white"/>
</clipPath>
</defs>
</svg>
