<svg width="1900" height="4278" viewBox="0 0 1900 4278" fill="none" xmlns="http://www.w3.org/2000/svg">
<g clip-path="url(#clip0_12_100)">
<rect width="1900" height="4278" fill="url(#paint0_linear_12_100)"/>
<path fill-rule="evenodd" clip-rule="evenodd" d="M0 1618.76L63.3333 1630.78C126.667 1642.79 253.333 1666.82 380 1660.81C506.667 1654.8 633.333 1618.76 760 1594.74C886.667 1570.71 1013.33 1558.7 1140 1570.71C1266.67 1582.73 1393.33 1618.76 1520 1636.78C1646.67 1654.8 1773.33 1654.8 1836.67 1654.8H1900V4278H1836.67C1773.33 4278 1646.67 4278 1520 4278C1393.33 4278 1266.67 4278 1140 4278C1013.33 4278 886.667 4278 760 4278C633.333 4278 506.667 4278 380 4278C253.333 4278 126.667 4278 63.3333 4278H0V1618.76Z" fill="url(#paint1_linear_12_100)"/>
<g opacity="0.15">
<path d="M1105.43 4009.43L1119.24 4004.64C1119.24 4004.64 1137.98 4012.85 1147.94 4021.07C1157.29 4028.78 1168.45 4044.36 1168.45 4044.36L1143.84 4163.52C1143.84 4163.52 1174.57 4169.7 1193.05 4177.21C1214.09 4185.77 1222.53 4197.26 1242.26 4208.72C1259 4218.43 1286 4232 1286 4232L1029.61 4226.16L865 4222.41L948.302 4144.66L959.23 4122.46L986.618 4069.06L1011.27 3876H1041.39L1086.59 3915.71L1105.43 4009.43Z" fill="#273270"/>
<path d="M1105.43 4009.43L1119.24 4004.64C1119.24 4004.64 1137.98 4012.85 1147.94 4021.07C1157.29 4028.78 1168.45 4044.36 1168.45 4044.36L1143.84 4163.52C1143.84 4163.52 1174.57 4169.7 1193.05 4177.21C1214.09 4185.77 1222.53 4197.26 1242.26 4208.72C1259 4218.43 1286 4232 1286 4232L1029.61 4226.16L865 4222.41L948.302 4144.66L959.23 4122.46L986.618 4069.06L1011.27 3876H1041.39L1086.59 3915.71L1105.43 4009.43Z" fill="black" fill-opacity="0.2"/>
</g>
<path d="M1693.12 4055.59L1881.5 3867.71L1900.02 3837.5L1900.02 3762.31L1466.92 4065.6L1570.5 4111L1681.19 4081.5L1693.12 4055.59Z" fill="#273270"/>
<path d="M1693.12 4055.59L1881.5 3867.71L1900.02 3837.5L1900.02 3762.31L1466.92 4065.6L1570.5 4111L1681.19 4081.5L1693.12 4055.59Z" fill="black" fill-opacity="0.2"/>
<g opacity="0.5">
<path d="M353.112 4154.57L408 4278H0.00170898V3816L15.5516 3781.62L48.4843 3309.96L97.8834 3153.65L163.749 3118L265.291 4096.98L353.112 4154.57Z" fill="#273270"/>
<path d="M353.112 4154.57L408 4278H0.00170898V3816L15.5516 3781.62L48.4843 3309.96L97.8834 3153.65L163.749 3118L265.291 4096.98L353.112 4154.57Z" fill="black" fill-opacity="0.2"/>
<path d="M1743.02 3320.92L1684.62 3699.37L1644 4227.67L1727.79 4245.45L1734.5 4278H1900V3204.01C1875.32 3208.89 1841.33 3217.7 1819.19 3232.02C1780.81 3256.85 1743.02 3320.92 1743.02 3320.92Z" fill="#273270"/>
<path d="M1743.02 3320.92L1684.62 3699.37L1644 4227.67L1727.79 4245.45L1734.5 4278H1900V3204.01C1875.32 3208.89 1841.33 3217.7 1819.19 3232.02C1780.81 3256.85 1743.02 3320.92 1743.02 3320.92Z" fill="black" fill-opacity="0.2"/>
<path d="M517.039 3801.67L445.708 3777C445.708 3777 408.099 3793.43 388.094 3809.89C369.342 3825.32 346.942 3856.49 346.942 3856.49L396.325 4094.95L894.953 4156L755.724 4026.43L700.854 4012.72L517.039 3801.67Z" fill="#273270"/>
<path d="M517.039 3801.67L445.708 3777C445.708 3777 408.099 3793.43 388.094 3809.89C369.342 3825.32 346.942 3856.49 346.942 3856.49L396.325 4094.95L894.953 4156L755.724 4026.43L700.854 4012.72L517.039 3801.67Z" fill="black" fill-opacity="0.2"/>
</g>
<path fill-rule="evenodd" clip-rule="evenodd" d="M0 2788.57H52.25C106.083 2788.57 210.583 2788.57 316.667 2821.52C422.75 2854.48 527.25 2920.38 633.333 2969.81C739.417 3019.24 843.917 3052.19 950 3085.14C1056.08 3118.1 1160.58 3151.05 1266.67 3068.67C1372.75 2986.29 1477.25 2788.57 1583.33 2673.24C1689.42 2557.9 1793.92 2524.95 1847.75 2508.48L1900 2492V4278H1847.75C1793.92 4278 1689.42 4278 1583.33 4278C1477.25 4278 1372.75 4278 1266.67 4278C1160.58 4278 1056.08 4278 950 4278C843.917 4278 739.417 4278 633.333 4278C527.25 4278 422.75 4278 316.667 4278C210.583 4278 106.083 4278 52.25 4278H0V2788.57Z" fill="url(#paint2_linear_12_100)"/>
<path d="M1550 600C1550 931.371 1281.37 1200 950 1200C618.629 1200 350 931.371 350 600C350 268.629 618.629 0 950 0C1281.37 0 1550 268.629 1550 600Z" fill="url(#paint3_radial_12_100)"/>
<rect width="1900" height="292" transform="matrix(1 0 0 -1 0 669)" fill="url(#paint4_linear_12_100)"/>
<circle cx="952" cy="602" r="225" fill="#F8C969"/>
<path d="M1900 850H0V599.407C0 599.407 138.205 611.404 225 599.407C421.5 572.244 500 694.913 696.5 636.645C794.846 607.483 848.801 582.224 952 572.244C1137.75 554.282 1234.23 649.862 1421 655.484C1609.61 661.161 1900 599.407 1900 599.407V850Z" fill="#5C9BE1"/>
<path d="M1900 880H0V629.407C0 629.407 138.205 641.404 225 629.407C421.5 602.244 500 724.913 696.5 666.645C794.846 637.483 848.801 612.224 952 602.244C1137.75 584.282 1234.23 679.862 1421 685.484C1609.61 691.161 1900 629.407 1900 629.407V880Z" fill="#5495DD"/>
<path d="M1900 910H0V659.407C0 659.407 138.205 671.404 225 659.407C421.5 632.244 500 754.913 696.5 696.645C794.846 667.483 848.801 642.224 952 632.244C1137.75 614.282 1234.23 709.862 1421 715.484C1609.61 721.161 1900 659.407 1900 659.407V910Z" fill="#488CD8"/>
<path d="M1900 927.63H0V677.037C0 677.037 252.464 718.909 334.5 688.13C673 561.13 488.5 733.114 696.5 714.275C798.661 705.023 833.5 663.275 951.5 714.275C1122.8 788.312 1339.5 768.13 1421 733.114C1699.71 613.365 1900 677.037 1900 677.037V927.63Z" fill="#619FE4"/>
<path d="M1900 957.63H0V707.037C0 707.037 252.464 748.909 334.5 718.13C673 591.13 488.5 763.114 696.5 744.275C798.661 735.023 833.5 693.275 951.5 744.275C1122.8 818.312 1339.5 798.13 1421 763.114C1699.71 643.365 1900 707.037 1900 707.037V957.63Z" fill="#5C9BE1"/>
<path d="M1900 987.63H0V737.037C0 737.037 252.464 778.909 334.5 748.13C673 621.13 488.5 793.114 696.5 774.275C798.661 765.023 833.5 723.275 951.5 774.275C1122.8 848.312 1339.5 828.13 1421 793.114C1699.71 673.365 1900 737.037 1900 737.037V987.63Z" fill="#5495DD"/>
<path d="M730.5 512.125L752.5 505.125L772 538.625M915 445.5L948.5 437.125L980 487.5M1101 545.625L1124.5 540.125L1150 576.625" stroke="#EFEEED" stroke-width="0.5"/>
<path d="M945.5 434C945.5 433.448 945.947 433 946.5 433H950.5C951.052 433 951.5 433.448 951.5 434V442.688V452.375V491.125V568.625V723.625H945.5V568.625V491.125V452.375V442.688V434Z" fill="#D9B07E"/>
<path d="M1121.5 538.625C1121.5 538.073 1121.95 537.625 1122.5 537.625H1126.5C1127.05 537.625 1127.5 538.073 1127.5 538.625V723.625H1121.5V538.625Z" fill="#D9B07E"/>
<path d="M749.5 503.625C749.5 503.073 749.947 502.625 750.5 502.625H754.5C755.052 502.625 755.5 503.073 755.5 503.625V688.625H749.5V503.625Z" fill="#D9B07E"/>
<path d="M951.5 651.362L945.5 655.305V657.699L951.5 653.755V651.362Z" fill="#A77E65"/>
<path d="M1127.5 691.648L1121.5 695.453V697.821L1127.5 694.016V691.648Z" fill="#A77E65"/>
<path d="M749.5 648.987V646.645L755.5 642.99V645.332L749.5 648.987Z" fill="#A77E65"/>
<path d="M772.395 539.375L729 512C729 512 741.345 556.358 741.345 585C741.345 613.642 729 658 729 658L772.395 630.625C772.395 630.625 781 602.969 781 585C781 567.031 772.395 539.375 772.395 539.375Z" fill="#EFEEED"/>
<path d="M979.928 487.938L914 445C914 445 932.755 514.575 932.755 559.5C932.755 604.425 914 674 914 674L979.928 631.062C979.928 631.062 993 587.684 993 559.5C993 531.316 979.928 487.938 979.928 487.938Z" fill="#EFEEED"/>
<path d="M1149.4 576.625L1101 546.625C1101 546.625 1114.77 595.237 1114.77 626.625C1114.77 658.013 1101 706.625 1101 706.625L1149.4 676.625C1149.4 676.625 1159 646.317 1159 626.625C1159 606.933 1149.4 576.625 1149.4 576.625Z" fill="#EFEEED"/>
<path d="M772.5 538.5L730 512M729.5 658L773 631.5" stroke="#D9B07E" stroke-width="2" stroke-linecap="round"/>
<path d="M980.689 488.163L914 445M914.31 675L980.5 631.5" stroke="#D9B07E" stroke-width="2" stroke-linecap="round"/>
<path d="M1150 576.625L1101.02 545.564M1101.02 707.625L1150 676.564" stroke="#D9B07E" stroke-width="2" stroke-linecap="round"/>
<path d="M774.852 776L752 794C752 794 781.324 794.074 799.916 791.796C826.634 788.521 867 776 867 776H774.852Z" fill="#662B2B"/>
<path d="M912 722V687M936 687V722M960 687V722M984 687V722M1008 687V723M791 646V678M815 646V678M839 646V678M863 646V678" stroke="#D9B07E" stroke-width="3"/>
<path d="M936 687V691M960 687V691M984 687V691.375M1008 687V691.5M791 646V650M815 646V650M839 646V650M863 646V650M912 687V691" stroke="#A77E65" stroke-width="3"/>
<path d="M786 678H993L1019 687H888H842.5H786V678Z" fill="#A26640"/>
<path d="M845.771 687.5H887.5V713.107L845.771 687.5Z" fill="#723E30" stroke="#572A1D"/>
<path d="M796.5 637H857.5L877 646H777L796.5 637Z" fill="#A26640"/>
<path d="M921.997 776.526C921.997 776.026 921.997 776.026 921.997 776.026H921.996H921.995H921.993H921.991H921.988H921.984H921.98H921.975H921.97H921.965H921.958H921.952H921.944H921.936H921.928H921.919H921.91H921.9H921.889H921.878H921.867H921.855H921.842H921.829H921.816H921.801H921.787H921.772H921.756H921.74H921.723H921.706H921.688H921.67H921.651H921.631H921.612H921.591H921.57H921.549H921.527H921.505H921.482H921.458H921.435H921.41H921.385H921.36H921.334H921.307H921.28H921.253H921.225H921.197H921.168H921.138H921.108H921.078H921.047H921.016H920.984H920.951H920.919H920.885H920.851H920.817H920.782H920.747H920.711H920.675H920.638H920.601H920.563H920.525H920.486H920.447H920.407H920.367H920.326H920.285H920.244H920.202H920.159H920.116H920.073H920.029H919.984H919.939H919.894H919.848H919.802H919.755H919.708H919.66H919.612H919.564H919.515H919.465H919.415H919.365H919.314H919.262H919.211H919.158H919.106H919.052H918.999H918.945H918.89H918.835H918.78H918.724H918.667H918.611H918.553H918.496H918.438H918.379H918.32H918.261H918.201H918.14H918.08H918.018H917.957H917.895H917.832H917.769H917.706H917.642H917.578H917.513H917.448H917.382H917.316H917.25H917.183H917.116H917.048H916.98H916.912H916.843H916.773H916.704H916.633H916.563H916.492H916.42H916.348H916.276H916.203H916.13H916.057H915.983H915.908H915.833H915.758H915.683H915.607H915.53H915.453H915.376H915.299H915.22H915.142H915.063H914.984H914.904H914.824H914.744H914.663H914.582H914.5H914.418H914.336H914.253H914.17H914.086H914.002H913.918H913.833H913.748H913.662H913.576H913.49H913.403H913.316H913.228H913.141H913.052H912.964H912.875H912.785H912.696H912.605H912.515H912.424H912.333H912.241H912.149H912.057H911.964H911.871H911.777H911.683H911.589H911.495H911.4H911.304H911.209H911.112H911.016H910.919H910.822H910.725H910.627H910.528H910.43H910.331H910.232H910.132H910.032H909.932H909.831H909.73H909.628H909.527H909.424H909.322H909.219H909.116H909.012H908.909H908.804H908.7H908.595H908.49H908.384H908.278H908.172H908.065H907.959H907.851H907.744H907.636H907.528H907.419H907.31H907.201H907.091H906.981H906.871H906.76H906.65H906.538H906.427H906.315H906.203H906.09H905.977H905.864H905.751H905.637H905.523H905.408H905.294H905.179H905.063H904.947H904.831H904.715H904.598H904.482H904.364H904.247H904.129H904.011H903.892H903.773H903.654H903.535H903.415H903.295H903.175H903.054H902.933H902.812H902.691H902.569H902.447H902.324H902.202H902.079H901.956H901.832H901.708H901.584H901.46H901.335H901.21H901.085H900.959H900.833H900.707H900.581H900.454H900.327H900.2H900.072H899.944H899.816H899.688H899.559H899.43H899.301H899.171H899.042H898.912H898.781H898.651H898.52H898.389H898.257H898.126H897.994H897.862H897.729H897.597H897.464H897.33H897.197H897.063H896.929H896.795H896.66H896.526H896.391H896.255H896.12H895.984H895.848H895.712H895.575H895.438H895.301H895.164H895.027H894.889H894.751H894.612H894.474H894.335H894.196H894.057H893.917H893.778H893.638H893.498H893.357H893.216H893.076H892.934H892.793H892.651H892.51H892.368H892.225H892.083H891.94H891.797H891.654H891.51H891.367H891.223H891.079H890.934H890.79H890.645H890.5H890.355H890.21H890.064H889.918H889.772H889.626H889.479H889.333H889.186H889.038H888.891H888.744H888.596H888.448H888.3H888.151H888.003H887.854H887.705H887.556H887.406H887.257H887.107H886.957H886.807H886.656H886.506H886.355H886.204H886.053H885.902H885.75H885.598H885.446H885.294H885.142H884.989H884.837H884.684H884.531H884.378H884.224H884.071H883.917H883.763H883.609H883.454H883.3H883.145H882.99H882.835H882.68H882.525H882.369H882.213H882.058H881.901H881.745H881.589H881.432H881.276H881.119H880.962H880.804H880.647H880.489H880.332H880.174H880.016H879.857H879.699H879.541H879.382H879.223H879.064H878.905H878.746H878.586H878.427H878.267H878.107H877.947H877.787H877.626H877.466H877.305H877.145H876.984H876.823H876.661H876.5H876.338H876.177H876.015H875.853H875.691H875.529H875.367H875.204H875.042H874.879H874.716H874.553H874.39H874.227H874.063H873.9H873.736H873.573H873.409H873.245H873.081H872.916H872.752H872.587H872.423H872.258H872.093H871.928H871.763H871.598H871.433H871.267H871.102H870.936H870.77H870.605H870.439H870.273H870.106H869.94H869.774H869.556H869.339H869.121H868.904H868.686H868.467H868.249H868.031H867.812H867.593H867.374H867.155H866.936H866.716H866.497H866.277H866.057H865.837H865.617H865.397H865.176H864.956H864.735H864.514H864.293H864.072H863.851H863.629H863.408H863.186H862.964H862.743H862.521H862.299H862.076H861.854H861.632H861.409H861.186H860.964H860.741H860.518H860.295H860.072H859.848H859.625H859.401H859.178H858.954H858.731H858.507H858.283H858.059H857.835H857.611H857.387H857.162H856.938H856.714H856.489H856.265H856.04H855.816H855.591H855.366H855.141H854.916H854.692H854.467H854.242H854.017H853.791H853.566H853.341H853.116H852.891H852.665H852.44H852.215H851.989H851.764H851.539H851.313H851.088H850.862H850.637H850.411H850.186H849.96H849.734H849.509H849.283H849.058H848.832H848.607H848.381H848.156H847.93H847.704H847.479H847.253H847.028H846.802H846.577H846.351H846.126H845.901H845.675H845.45H845.225H844.999H844.774H844.549H844.324H844.098H843.873H843.648H843.423H843.198H842.973H842.748H842.524H842.299H842.074H841.849H841.625H841.4H841.176H840.951H840.727H840.503H840.278H840.054H839.83H839.606H839.382H839.159H838.935H838.711H838.488H838.264H838.041H837.817H837.594H837.371H837.148H836.925H836.702H836.48H836.257H836.035H835.812H835.59H835.368H835.146H834.924H834.702H834.48H834.259H834.037H833.816H833.595H833.374H833.153H832.932H832.712H832.491H832.271H832.05H831.83H831.61H831.391H831.171H830.951H830.732H830.513H830.294H830.075H829.856H829.638H829.419H829.201H828.983H828.765H828.548H828.33H828.113H827.896H827.679H827.462H827.245H827.029H826.812H826.596H826.38H826.165H825.949H825.734H825.519H825.304H825.089H824.875H824.661H824.447H824.233H824.019H823.806H823.592H823.379H823.167H822.954H822.742H822.53H822.318H822.106H821.895H821.684H821.473H821.262H821.051H820.841H820.631H820.422H820.212H820.003H819.794H819.585H819.377H819.168H818.96H818.753H818.545H818.338H818.131H817.924H817.718H817.512H817.306H817.101H816.895H816.69H816.486H816.281H816.077H815.873H815.67H815.466H815.263H815.061H814.858H814.656H814.454H814.253H814.052H813.851H813.65H813.45H813.25H813.05H812.851H812.652H812.453H812.255H812.057H811.859H811.662H811.465H811.268H811.071H810.875H810.68H810.484H810.289H810.094H809.9H809.706H809.512H809.319H809.126H808.933H808.741H808.549H808.358H808.167H807.976H807.785H807.595H807.405H807.216H807.027H806.839H806.65H806.462H806.275H806.088H805.901H805.715H805.529H805.343H805.158H804.974H804.789H804.605H804.422H804.239H804.056H803.873H803.691H803.51H803.329H803.148H802.968H802.788H802.608H802.429H802.251H802.073H801.895H801.718H801.541H801.364H801.188H801.013H800.837H800.663H800.488H800.314H800.141H799.968H799.796H799.624H799.452H799.281H799.11H798.94H798.77H798.601H798.432H798.264H798.096H797.928H797.761H797.595H797.429H797.263H797.098H796.934H796.77H796.606H796.443H796.28H796.118H795.957H795.795H795.635H795.475H795.315H795.156H794.997H794.839H794.681H794.524H794.368H794.212H794.056H793.901H793.746H793.592H793.439H793.286H793.133H792.982H792.83H792.679H792.529H792.379H792.23H792.081H791.933H791.786H791.638H791.492H791.346H791.201H791.056H790.911H790.768H790.625H790.482H790.34H790.198H790.057H789.917H789.777H789.638H789.499H789.361H789.224H789.087H788.951H788.815H788.68H788.545H788.411H788.278H788.145H788.013H787.881H787.75H787.62H787.49H787.361H787.233H787.105H786.977H786.851H786.724H786.599H786.474H786.35H786.226H786.103H785.981H785.859H785.738H785.617H785.498H785.378H785.26H785.142H785.025H784.908H784.792H784.676H784.562H784.448H784.334H784.222H784.109H783.998H783.887H783.777H783.668H783.559H783.451H783.343H783.237H783.131H783.025H782.92H782.816H782.713H782.61H782.508H782.407H782.306H782.206H782.107H782.009H781.911H781.814H781.717H781.621H781.526H781.432H781.338H781.245H781.153H781.062H780.971H780.881H780.792H780.703H780.615H780.528H780.442H780.356H780.271H780.187H780.103H780.02H779.938H779.857H779.776H779.697H779.618H779.539H779.462H779.385H779.309H779.234H779.159H779.085H779.012H778.94H778.869H778.798H778.728H778.659H778.59H778.523H778.456H778.39H778.325H778.26H778.196H778.134H778.071H778.01H777.95H777.89H777.831C775.768 776.026 773.443 775.095 770.926 773.383C768.416 771.676 765.762 769.225 763.052 766.263C757.633 760.339 752.043 752.426 746.992 744.494C741.943 736.567 737.444 728.636 734.206 722.687C732.588 719.713 731.285 717.234 730.387 715.5C729.942 714.64 729.597 713.964 729.361 713.5H738.548H888.407C888.427 713.51 888.449 713.522 888.475 713.535C888.592 713.595 888.765 713.683 888.992 713.794C889.446 714.018 890.115 714.337 890.979 714.722C892.709 715.493 895.223 716.53 898.366 717.598C904.652 719.734 913.466 721.996 923.573 722.499L923.585 722.5H923.598H1006.53H1006.54L1006.55 722.5C1017.84 721.997 1027.23 719.736 1033.8 717.601C1037.09 716.532 1039.67 715.495 1041.43 714.724C1042.31 714.338 1042.99 714.019 1043.45 713.795C1043.68 713.683 1043.85 713.595 1043.97 713.535C1043.99 713.522 1044.02 713.51 1044.04 713.5H1092.28H1187.9C1187.67 713.76 1187.38 714.077 1187.05 714.448C1186.04 715.584 1184.57 717.217 1182.74 719.201C1179.07 723.169 1173.98 728.539 1168.24 734.149C1162.5 739.759 1156.12 745.604 1149.9 750.525C1143.67 755.452 1137.63 759.424 1132.56 761.322C1122.33 765.146 1101.57 768.326 1076.58 770.798C1051.61 773.267 1022.48 775.025 995.533 776.026C981.195 776.559 962.816 776.559 948.016 776.426C940.617 776.359 934.115 776.259 929.463 776.176C927.137 776.134 925.273 776.097 923.991 776.07C923.35 776.056 922.855 776.045 922.519 776.038L922.138 776.029L922.042 776.027L922.017 776.026L922.011 776.026L922.01 776.026C922.009 776.026 922.009 776.026 921.997 776.526ZM921.997 776.526V776.026H922.009L921.997 776.526ZM728.906 712.5L712.701 665.5H780.752L793.602 682.383L793.74 682.564L793.966 682.579L843.138 685.92L886.749 712.5H738.548H728.906Z" fill="#723E30" stroke="#572A1D"/>
<path d="M1171.5 669.5C1171.5 669.5 1171.32 674.577 1172 678C1173 683 1175.98 687.336 1175.98 687.336C1175.98 687.336 1181.05 687.5 1182 686C1182.95 684.5 1182.5 682.433 1182.5 682.433C1181.67 680.245 1180.44 678.88 1178.86 677.121C1178.28 676.485 1177.66 675.797 1177 675C1174.92 672.509 1171.5 669.5 1171.5 669.5Z" fill="#D4AF37"/>
<path d="M1194.53 698.621C1194.53 698.621 1199.18 697.206 1201.74 695.518C1204.44 693.731 1206.06 692.532 1207.7 689.734C1208.68 688.052 1209.5 685.079 1209.5 685.079C1209.5 685.079 1206.32 685.541 1204.37 685.079C1202.17 684.556 1201.14 682.978 1200.09 681.353C1199.15 679.903 1198.18 678.416 1196.33 677.602C1193.8 676.491 1187 676 1187 676C1187 676 1185.47 676.15 1181.03 673.562C1177.5 671.5 1171.5 669.5 1171.5 669.5C1171.5 669.5 1174.92 672.509 1177 675C1177.66 675.797 1178.28 676.485 1178.86 677.121C1180.44 678.88 1181.67 680.245 1182.5 682.433C1182.5 682.433 1182.95 684.5 1182 686C1181.05 687.5 1175.98 687.336 1175.98 687.336C1175.98 687.336 1177.16 688.868 1178.03 689.734C1179.56 691.241 1182.47 692.978 1182.47 692.978C1182.47 692.978 1181.8 696.742 1180.39 698.621C1178.6 701.005 1175.9 700.462 1173.12 699.903C1170.48 699.375 1167.77 698.831 1165.7 700.737C1153.5 711.933 1139.5 712.392 1139.5 712.392H1091.45L1043.09 712.433C1043.09 712.433 1035.5 716.975 1024.5 719.65H1079.75H1171.3C1171.3 719.65 1145.35 749.666 1125.92 755.856C1106.49 762.046 1041.35 766.089 990.502 767.698C963.425 768.555 921.111 767.698 921.111 767.698H871.843H782.105C765.451 767.698 738 713.474 738 713.474L725.4 677H756.598H790L781 665.474H711.153L727.703 713.474C727.703 713.474 759.331 777 776.984 777H868.927H921.151C921.151 777 966.004 778.066 994.705 777C1048.6 774.997 1111.29 769.967 1131.88 762.264C1152.48 754.561 1188.15 713.433 1188.15 713.433C1188.15 713.433 1191.22 709.109 1192.5 706C1193.64 703.237 1194.53 698.621 1194.53 698.621Z" fill="#D4AF37"/>
<path d="M1171.5 669.5C1171.5 669.5 1177.5 671.5 1181.03 673.562C1185.47 676.15 1187 676 1187 676C1187 676 1193.8 676.491 1196.33 677.602C1198.18 678.416 1199.15 679.903 1200.09 681.353C1201.14 682.978 1202.17 684.556 1204.37 685.079C1206.32 685.541 1209.5 685.079 1209.5 685.079C1209.5 685.079 1208.68 688.052 1207.7 689.734C1206.06 692.532 1204.44 693.731 1201.74 695.518C1199.18 697.206 1194.53 698.621 1194.53 698.621C1194.53 698.621 1193.64 703.237 1192.5 706C1191.22 709.109 1188.15 713.433 1188.15 713.433C1188.15 713.433 1152.48 754.561 1131.88 762.264C1111.29 769.967 1048.6 774.997 994.705 777C966.004 778.066 921.151 777 921.151 777M1171.5 669.5C1171.5 669.5 1171.32 674.577 1172 678C1173 683 1175.98 687.336 1175.98 687.336M1171.5 669.5C1171.5 669.5 1174.92 672.509 1177 675C1177.66 675.797 1178.28 676.485 1178.86 677.121C1180.44 678.88 1181.67 680.245 1182.5 682.433C1182.5 682.433 1182.95 684.5 1182 686C1181.05 687.5 1175.98 687.336 1175.98 687.336M1175.98 687.336C1175.98 687.336 1177.16 688.868 1178.03 689.734C1179.56 691.241 1182.47 692.978 1182.47 692.978C1182.47 692.978 1181.8 696.742 1180.39 698.621C1178.6 701.005 1175.9 700.462 1173.12 699.903C1170.48 699.375 1167.77 698.831 1165.7 700.737C1153.5 711.933 1139.5 712.392 1139.5 712.392H1091.45L1043.09 712.433C1043.09 712.433 1035.5 716.975 1024.5 719.65H1079.75H1171.3C1171.3 719.65 1145.35 749.666 1125.92 755.856C1106.49 762.046 1041.35 766.089 990.502 767.698C963.425 768.555 921.111 767.698 921.111 767.698H871.843H782.105C765.451 767.698 738 713.474 738 713.474L725.4 677H756.598H790L781 665.474H711.153L727.703 713.474C727.703 713.474 759.331 777 776.984 777M921.151 777C921.151 777 897.335 777 868.927 777M921.151 777H868.927M776.984 777C786.978 777 831.861 777 868.927 777M776.984 777H868.927" stroke="#BA951F"/>
<path d="M1171.5 669.5C1171.5 669.5 1171.15 675.113 1172 678.5C1173.5 684.5 1176.5 688 1176.5 688C1176.5 688 1181.55 687.664 1182.5 686.164C1183.45 684.664 1183 682.597 1183 682.597C1181.87 679.618 1180 678.164 1177.5 675.164C1175.42 672.673 1171.5 669.5 1171.5 669.5Z" fill="#BA951F"/>
<rect x="945.5" y="687" width="6" height="4" fill="#A77E65"/>
<path d="M1900 1018H0V767.407C0 767.407 138.205 779.404 225 767.407C421.5 740.244 500 862.913 696.5 804.645C794.846 775.483 848.801 750.224 952 740.244C1137.75 722.282 1234.23 817.862 1421 823.484C1609.61 829.161 1900 767.407 1900 767.407V1018Z" fill="#6DAAEE"/>
<path d="M1900 1048H0V797.407C0 797.407 138.205 809.404 225 797.407C421.5 770.244 500 892.913 696.5 834.645C794.846 805.483 848.801 780.224 952 770.244C1137.75 752.282 1234.23 847.862 1421 853.484C1609.61 859.161 1900 797.407 1900 797.407V1048Z" fill="#619FE4"/>
<path d="M1900 1078H0V827.407C0 827.407 138.205 839.404 225 827.407C421.5 800.244 500 922.913 696.5 864.645C794.846 835.483 848.801 810.224 952 800.244C1137.75 782.282 1234.23 877.862 1421 883.484C1609.61 889.161 1900 827.407 1900 827.407V1078Z" fill="#5C9BE1"/>
<path d="M0 1093H1900V842.407C1900 842.407 1761.79 854.404 1675 842.407C1478.5 815.244 1400 937.913 1203.5 879.645C1105.15 850.483 1051.2 825.224 948 815.244C762.252 797.282 665.765 892.862 479 898.484C290.388 904.161 0 842.407 0 842.407V1093Z" fill="#7DB5F4"/>
<path d="M0 1123H1900V872.407C1900 872.407 1761.79 884.404 1675 872.407C1478.5 845.244 1400 967.913 1203.5 909.645C1105.15 880.483 1051.2 855.224 948 845.244C762.252 827.282 665.765 922.862 479 928.484C290.388 934.161 0 872.407 0 872.407V1123Z" fill="#6DAAEE"/>
<path d="M0 1213H1900V902.407C1900 902.407 1761.79 914.404 1675 902.407C1478.5 875.244 1400 997.913 1203.5 939.645C1105.15 910.483 1051.2 885.224 948 875.244C762.252 857.282 665.765 952.862 479 958.484C290.388 964.161 0 902.407 0 902.407V1213Z" fill="#619FE4"/>
</g>
<defs>
<linearGradient id="paint0_linear_12_100" x1="950" y1="0" x2="950" y2="4278" gradientUnits="userSpaceOnUse">
<stop offset="0.223958" stop-color="#77B5FE"/>
<stop offset="0.265625" stop-color="#619FE4"/>
</linearGradient>
<linearGradient id="paint1_linear_12_100" x1="950" y1="926" x2="950" y2="4278" gradientUnits="userSpaceOnUse">
<stop offset="0.161458" stop-color="#2F6096" stop-opacity="0"/>
<stop offset="0.661458" stop-color="#324D87"/>
</linearGradient>
<linearGradient id="paint2_linear_12_100" x1="950" y1="2492" x2="950" y2="4278" gradientUnits="userSpaceOnUse">
<stop stop-color="#3F466F" stop-opacity="0"/>
<stop offset="1" stop-color="#181E3F"/>
</linearGradient>
<radialGradient id="paint3_radial_12_100" cx="0" cy="0" r="1" gradientUnits="userSpaceOnUse" gradientTransform="translate(950 600) rotate(90) scale(600)">
<stop stop-color="#E3DDCD" stop-opacity="0.3"/>
<stop offset="1" stop-color="#E3DDCD" stop-opacity="0"/>
</radialGradient>
<linearGradient id="paint4_linear_12_100" x1="950" y1="0" x2="950" y2="292" gradientUnits="userSpaceOnUse">
<stop stop-color="#F8F3E7" stop-opacity="0.21"/>
<stop offset="1" stop-color="#E3DDCD" stop-opacity="0"/>
</linearGradient>
<clipPath id="clip0_12_100">
<rect width="1900" height="4278" fill="white"/>
</clipPath>
</defs>
</svg>
