<svg width="1900" height="280" viewBox="0 0 1900 280" fill="none" xmlns="http://www.w3.org/2000/svg">
<path d="M0 280H1900V29.4067C1900 29.4067 1761.79 41.4043 1675 29.4067C1478.5 2.24448 1400 124.913 1203.5 66.6452C1105.15 37.483 1051.2 12.224 948 2.24448C762.252 -15.7177 665.765 79.8616 479 85.4835C290.388 91.161 0 29.4067 0 29.4067V280Z" fill="#7DB5F4"/>
<path d="M0 310H1900V59.4067C1900 59.4067 1761.79 71.4043 1675 59.4067C1478.5 32.2445 1400 154.913 1203.5 96.6452C1105.15 67.483 1051.2 42.224 948 32.2445C762.252 14.2823 665.765 109.862 479 115.484C290.388 121.161 0 59.4067 0 59.4067V310Z" fill="#6DAAEE"/>
<path d="M0 340H1900V89.4067C1900 89.4067 1761.79 101.404 1675 89.4067C1478.5 62.2445 1400 184.913 1203.5 126.645C1105.15 97.483 1051.2 72.224 948 62.2445C762.252 44.2823 665.765 139.862 479 145.484C290.388 151.161 0 89.4067 0 89.4067V340Z" fill="#619FE4"/>
</svg>
