<svg width="1900" height="347" viewBox="0 0 1900 347" fill="none" xmlns="http://www.w3.org/2000/svg">
<path d="M1900 286.63H0V36.0369C0 36.0369 252.464 77.9089 334.5 47.1302C673 -79.8698 488.5 92.1138 696.5 73.2754C798.661 64.0229 833.5 22.2755 951.5 73.2754C1122.8 147.312 1339.5 127.13 1421 92.1138C1699.71 -27.635 1900 36.0369 1900 36.0369V286.63Z" fill="#619FE4"/>
<path d="M1900 316.63H0V66.0369C0 66.0369 252.464 107.909 334.5 77.1302C673 -49.8698 488.5 122.114 696.5 103.275C798.661 94.0229 833.5 52.2755 951.5 103.275C1122.8 177.312 1339.5 157.13 1421 122.114C1699.71 2.36499 1900 66.0369 1900 66.0369V316.63Z" fill="#5C9BE1"/>
<path d="M1900 346.63H0V96.0369C0 96.0369 252.464 137.909 334.5 107.13C673 -19.8698 488.5 152.114 696.5 133.275C798.661 124.023 833.5 82.2755 951.5 133.275C1122.8 207.312 1339.5 187.13 1421 152.114C1699.71 32.365 1900 96.0369 1900 96.0369V346.63Z" fill="#5495DD"/>
</svg>
