<svg width="75" height="68" viewBox="0 0 75 68" fill="none" xmlns="http://www.w3.org/2000/svg">
<path d="M35.0073 3.45435C26.9524 1.93831 29.5073 -6.54557 15.0073 10.4546C10.3949 15.8624 18.5073 17.9542 12.5073 24.4544C7.51485 29.8631 0.362487 32.603 0.0073141 39.9551C-0.355279 47.4608 12.8632 42.0476 17.5073 47.9551C21.84 53.4664 16.3954 60.6578 21.5073 65.4551C27.7722 71.3344 37.14 66.0347 42.0073 58.9549C47.5073 50.9549 58.1676 60.0789 62.5073 52.9551C65.8597 47.4522 61.6213 42.9401 64.0073 36.9545C66.77 30.0238 78.0073 30.4545 73.5073 24.4545C63.5348 11.1577 53.5073 23.6463 53.5073 14.4545C53.5073 1.95447 43.4178 5.03731 35.0073 3.45435Z" fill="#161616"/>
<path fill-rule="evenodd" clip-rule="evenodd" d="M36.9633 22C30.3578 22 25 27.3578 25 33.9633C25 39.2477 28.4495 43.7248 33.1468 45.3395C33.7339 45.4128 33.9541 45.0459 33.9541 44.7523C33.9541 44.4587 33.9541 43.7248 33.9541 42.6973C30.6514 43.4312 29.9174 41.0826 29.9174 41.0826C29.4037 39.6881 28.5963 39.3211 28.5963 39.3211C27.4954 38.5872 28.6697 38.5872 28.6697 38.5872C29.844 38.6606 30.5046 39.8349 30.5046 39.8349C31.6055 41.6697 33.2936 41.156 33.9541 40.8624C34.0275 40.055 34.3945 39.5413 34.6881 39.2477C32.0459 38.9541 29.2569 37.9266 29.2569 33.3028C29.2569 31.9817 29.6972 30.9541 30.5046 30.0734C30.4312 29.8532 29.9908 28.6055 30.6514 26.9908C30.6514 26.9908 31.6789 26.6972 33.9541 28.2385C34.9083 27.945 35.9358 27.8716 36.9633 27.8716C37.9908 27.8716 39.0183 28.0183 39.9725 28.2385C42.2477 26.6972 43.2752 26.9908 43.2752 26.9908C43.9358 28.6055 43.4954 29.8532 43.422 30.1468C44.156 30.9541 44.6697 32.055 44.6697 33.3761C44.6697 38 41.8807 38.9541 39.2385 39.2477C39.6789 39.6147 40.0459 40.3486 40.0459 41.4495C40.0459 43.0642 40.0459 44.3119 40.0459 44.7523C40.0459 45.0459 40.2661 45.4128 40.8532 45.3395C45.6239 43.7248 49 39.2477 49 33.9633C48.9266 27.3578 43.5688 22 36.9633 22Z" fill="#FBFBFF"/>
</svg>
