<svg width="89" height="84" viewBox="0 0 89 84" fill="none" xmlns="http://www.w3.org/2000/svg">
<path d="M39.2186 72.1543C46.6712 75.5658 42.148 83.1845 60.3159 70.1774C66.0951 66.0398 58.7253 62.0556 66.1144 57.1919C72.2626 53.145 79.8643 52.2085 81.9799 45.1584C84.1397 37.9611 70.0066 40.031 66.9221 33.1788C64.0445 26.7862 71.0609 21.118 67.255 15.2306C62.5907 8.01544 52.2222 10.9027 45.7928 16.6017C38.5278 23.0414 30.3791 11.6183 24.4513 17.4871C19.8721 22.0206 22.8989 27.4206 19.1414 32.6553C14.7907 38.7165 3.98797 35.5919 6.91029 42.4991C13.3865 57.8064 26.1268 48.1008 23.9128 57.022C20.902 69.154 31.437 68.5921 39.2186 72.1543Z" fill="#161616"/>
<path fill-rule="evenodd" clip-rule="evenodd" d="M39.317 44.5999C39.317 47.1599 41.4127 49.2428 44 49.2428C46.5756 49.2428 48.6712 47.1599 48.6712 44.5999C48.6712 42.0282 46.5756 39.9453 44 39.9453C41.4127 39.9453 39.317 42.0282 39.317 44.5999ZM50.8839 37.4553C52.9327 39.0378 54.6771 41.3535 55.9298 44.2509C56.0234 44.472 56.0234 44.728 55.9298 44.9375C53.4244 50.7324 48.9639 54.2 44 54.2H43.9883C39.0361 54.2 34.5756 50.7324 32.0702 44.9375C31.9766 44.728 31.9766 44.472 32.0702 44.2509C34.5756 38.456 39.0361 35 43.9883 35H44C46.482 35 48.8351 35.8611 50.8839 37.4553ZM44.0014 47.495C45.6053 47.495 46.9165 46.1917 46.9165 44.5976C46.9165 42.9917 45.6053 41.6885 44.0014 41.6885C43.8609 41.6885 43.7204 41.7001 43.5916 41.7234C43.5448 43.0034 42.4911 44.0274 41.1916 44.0274H41.1331C41.098 44.2136 41.0746 44.3997 41.0746 44.5976C41.0746 46.1917 42.3858 47.495 44.0014 47.495Z" fill="#FBFBFF"/>
</svg>
