<svg width="1900" height="340" viewBox="0 0 1900 340" fill="none" xmlns="http://www.w3.org/2000/svg">
<path d="M1900 280H0V29.4067C0 29.4067 138.205 41.4043 225 29.4067C421.5 2.24448 500 124.913 696.5 66.6452C794.846 37.483 848.801 12.224 952 2.24448C1137.75 -15.7177 1234.23 79.8616 1421 85.4835C1609.61 91.161 1900 29.4067 1900 29.4067V280Z" fill="#6DAAEE"/>
<path d="M1900 310H0V59.4067C0 59.4067 138.205 71.4043 225 59.4067C421.5 32.2445 500 154.913 696.5 96.6452C794.846 67.483 848.801 42.224 952 32.2445C1137.75 14.2823 1234.23 109.862 1421 115.484C1609.61 121.161 1900 59.4067 1900 59.4067V310Z" fill="#619FE4"/>
<path d="M1900 340H0V89.4067C0 89.4067 138.205 101.404 225 89.4067C421.5 62.2445 500 184.913 696.5 126.645C794.846 97.483 848.801 72.224 952 62.2445C1137.75 44.2823 1234.23 139.862 1421 145.484C1609.61 151.161 1900 89.4067 1900 89.4067V340Z" fill="#5C9BE1"/>
</svg>
