<svg width="247" height="114" viewBox="0 0 247 114" fill="none" xmlns="http://www.w3.org/2000/svg">
<path d="M234.648 33.4059C236.406 35.1613 237.812 36.5655 239.219 38.1453C248.359 48.1508 249.413 60.7893 242.558 72.3746C239.219 77.9917 234.649 82.38 229.551 86.2418C217.774 95.0185 204.591 100.811 190.529 104.497C145.883 116.258 100.885 116.785 55.711 107.833C43.7584 105.551 32.1573 101.864 21.2593 95.8962C15.283 92.561 9.83405 88.6992 5.79126 83.0822C-1.06391 73.9544 -1.767 64.3 3.33043 54.119C6.67013 47.2731 11.9433 42.0071 17.9196 37.2677C28.4661 28.842 40.0671 22.5228 52.547 17.6078C97.7209 -0.823291 144.301 -4.33398 191.936 4.96934C204.943 7.42682 217.247 11.8152 228.496 19.1876C230.781 20.7674 233.067 22.3472 235.176 24.2781C239.394 27.9644 239.219 29.1931 234.648 33.4059ZM192.287 14.2727C192.287 14.0971 192.287 13.9216 192.287 13.5705C189.475 13.0439 186.838 12.3418 184.026 11.8152C146.586 5.49595 109.673 7.42683 73.2883 18.4855C57.4687 23.2249 42.1764 29.7197 28.6418 39.3741C23.5444 43.0603 18.447 47.0976 14.4042 51.837C5.08817 62.8957 6.14281 74.1299 17.5681 83.0822C22.4898 86.9439 28.2903 89.928 34.0908 92.561C46.5707 98.0026 59.7538 100.636 73.1126 102.566C105.103 106.955 137.094 106.604 168.909 101.162C185.959 98.1781 202.482 93.2631 217.598 84.3109C223.751 80.6247 229.551 76.4118 233.77 70.6192C240.976 60.9648 240.273 50.7838 231.66 42.3582C229.024 39.7252 226.036 37.4432 222.872 35.3368C208.107 25.6824 191.76 21.6451 174.358 21.9962C170.667 21.9962 166.8 22.3472 163.109 22.5228C160.824 22.5228 158.89 21.6451 158.714 19.1876C158.539 17.0812 160.121 15.6769 162.23 15.5014C165.921 14.9748 169.612 14.0971 173.304 13.9216C179.631 13.7461 185.959 14.0971 192.287 14.2727Z" fill="white"/>
</svg>
