<svg width="1900" height="513" viewBox="0 0 1900 513" fill="none" xmlns="http://www.w3.org/2000/svg">
<path d="M1900 299.745L1847.75 313.812L1845.1 314.505L1845.08 314.51C1837.49 316.496 1828.97 318.725 1819.63 321.037C1819.17 320.395 1818.65 319.796 1818.06 319.273C1809.31 311.513 1787.57 309.902 1779.33 314.732C1773.59 318.097 1773.55 321.575 1771.91 326.336C1771.36 327.957 1771.1 329.848 1771.03 331.744C1768.33 332.252 1765.61 332.751 1762.85 333.239C1744.38 321.829 1698.16 295.707 1662.64 296.002C1631.33 296.263 1593.1 317.185 1569.93 331.992C1554.06 328.246 1538.22 323.522 1522.41 318.268L1528.47 302.813C1528.47 302.813 1526.49 293.274 1517.19 288.245C1501.52 279.772 1467.55 275.659 1443.74 276.904C1443.1 272.743 1441.42 264.991 1437.43 260.344C1425.06 245.917 1393.38 242.081 1381.09 250.486C1370.73 246.485 1339.31 238.554 1339.31 238.554L1353.1 175.139C1353.1 175.139 1346.85 166.849 1341.61 162.747C1336.02 158.371 1325.52 154 1325.52 154L1305.6 160.56L1254.26 216.687L1238.94 220.331L1192.92 261.105C1187.5 261.693 1182.32 262.762 1177.75 264.498C1156.66 272.504 1136.14 299.371 1128.06 310.937C1119.22 315.718 1110.38 320.595 1101.54 325.472C1074.28 340.516 1047.01 355.563 1019.68 367.804L1019.61 367.708L1019.54 367.632C1019.47 367.557 1019.41 367.482 1019.34 367.409C1011.1 358.437 990.614 356.574 982.85 362.159C978.389 365.368 977.584 368.665 976.573 372.81C976.357 373.691 976.133 374.611 975.862 375.576C975.093 378.315 974.934 381.723 975.022 384.84C969.56 386.505 964.096 387.999 958.627 389.298C958.168 387.486 957.503 385.58 956.555 384.208C951.247 376.518 938.055 374.921 933.055 379.708C930.452 382.199 929.782 384.753 929.195 387.854C928.392 386.959 927.464 386.123 926.394 385.409C915.889 378.406 893.205 375.734 877.728 377.555C877.242 374.006 876.016 367.298 873.341 363.364C865.099 351.24 844.614 348.722 836.85 356.269C836.002 357.093 835.287 357.921 834.677 358.76C828.692 351.186 816.832 349.921 812.126 355.244C809.312 358.428 808.726 361.695 808.094 365.751C807.767 365.408 807.422 365.081 807.06 364.773C794.78 354.346 764.262 352.181 752.695 358.671C750.459 359.926 748.84 361.191 747.619 362.502C732.566 357.133 717.504 351.469 702.423 345.798C679.447 337.158 656.427 328.502 633.333 320.846C625.462 318.237 617.885 315.578 610.557 312.888L615 290.021C615 290.021 612.567 271.064 602.355 261.546C579.982 240.692 524.381 236.361 503.307 249.343C496.344 253.631 492.663 257.988 490.269 262.748C453.336 248.109 415.012 236.569 364.661 232.323C357.37 231.708 350.385 231.501 343.647 231.612L320.984 216.982L304.815 214.181L250.649 171.042L229.63 166C229.63 166 218.548 169.359 212.653 172.723C207.127 175.876 200.526 182.247 200.526 182.247L215.078 230.988L207 232.236L155.147 215.704C155.147 215.704 132.5 211.717 117.941 213.426C111.71 214.157 104.483 224 104.483 224C96.2129 217.157 73.5403 197.101 63.5 172C63.5 150 54.3049 99.1289 54.3049 99.1289L40.1166 80.3198C40.1166 80.3198 34.1041 86.3124 31.5022 90.9951C28.3077 96.7444 27.6247 105.252 27.6991 112.053L28.4619 123.021C28.4619 123.021 27.7668 118.244 27.6991 112.053L22.3812 35.5847L13.2601 6.60864L0 0.5V513H52.25H316.667H633.333H950H1266.67H1583.33H1847.75H1900V299.745Z" fill="#161616"/>
<path d="M1051.5 190.714C1051.5 193.167 1050.97 195.531 1050 197.747C1047.87 202.594 1043.6 206.74 1038 209.592C1032.9 212.19 1026.69 213.714 1020 213.714C1015.17 213.714 1010.59 212.92 1006.5 211.501C1001.71 209.839 997.582 207.319 994.494 204.214C992.827 202.537 991.462 200.69 990.458 198.714C989.806 197.431 989.306 196.094 988.975 194.714C988.663 193.415 988.5 192.079 988.5 190.714C988.5 189.697 988.59 188.696 988.766 187.714C989.075 185.979 989.649 184.305 990.458 182.714C991.666 180.337 993.396 178.146 995.547 176.214C996.109 175.71 996.699 175.223 997.316 174.756C997.334 174.742 997.351 174.729 997.368 174.716C997.975 174.259 998.607 173.82 999.263 173.401C1004.8 169.86 1012.06 167.714 1020 167.714C1026.69 167.714 1032.9 169.238 1038 171.837C1040.66 173.192 1043.02 174.839 1044.99 176.714C1046.45 178.098 1047.7 179.607 1048.7 181.214C1049.96 183.241 1050.83 185.425 1051.23 187.714C1051.41 188.696 1051.5 189.697 1051.5 190.714Z" fill="#161616"/>
<path d="M1051.5 190.714C1051.5 193.167 1050.97 195.531 1050 197.747C1050 197.747 1049.9 199.437 1050.5 200.214C1051.26 201.191 1052.34 201.641 1053.5 201.214C1054.28 200.928 1054.28 200.12 1055 199.714C1056.74 198.74 1058.08 201.238 1060 200.714C1061.36 200.344 1061.68 199.203 1063 198.714C1065.39 197.83 1067.45 200.726 1069.5 199.214C1070.77 198.28 1070.26 196.681 1071.5 195.714C1073.5 194.156 1076.73 197.913 1078 195.714C1078.4 195.017 1078.05 194.384 1078.5 193.714C1079.39 192.374 1081.41 193.896 1082.5 192.714C1083.21 191.942 1082.99 191.133 1083.5 190.214C1084.24 188.882 1085.7 188.313 1086 187.214C1086.21 186.438 1086.02 185.826 1085.5 185.214C1084.45 183.992 1082.88 187.043 1081.5 186.214C1081.03 185.93 1081.01 185.417 1080.5 185.214C1079.75 184.919 1079.3 185.79 1078.5 185.714C1077.63 185.632 1077.36 184.866 1076.5 184.714C1074.42 184.348 1074.11 187.868 1072 187.714C1070.69 187.619 1070.5 185.474 1069 186.214C1068.22 186.601 1067.07 188.051 1066.5 188.714C1065.52 189.858 1064.5 189.833 1064.5 189.833L1051.5 190.714Z" fill="#161616"/>
<path d="M1051.23 187.714L1051.5 190.714L1064.5 189.833C1064.5 189.833 1066.45 186.614 1068.5 185.714C1070.12 185.005 1071.95 186.058 1073.5 185.214C1075.22 184.282 1074.53 182.504 1076 181.214C1078.23 179.25 1081 180.911 1083 178.714C1084.06 177.551 1083.97 175.907 1085 174.714C1086.26 173.257 1088.65 173.645 1089 171.837C1089.23 170.624 1087.04 170.448 1087 169.214C1086.94 167.547 1089.37 166.639 1088.5 165.214C1087.46 163.514 1085.34 166.972 1083.5 166.214C1082.85 165.946 1082.65 165.486 1082 165.214C1079.05 163.979 1078.66 170.727 1075.5 170.214C1074.21 170.004 1073.8 168.833 1072.5 168.714C1069.75 168.464 1070.12 174.587 1067.5 173.714C1066.57 173.406 1066.43 172.513 1065.5 172.214C1063.23 171.485 1062.85 175.315 1060.5 175.714C1058.54 176.048 1057.47 174.458 1055.5 174.714C1051.86 175.187 1048.7 181.214 1048.7 181.214C1049.96 183.241 1050.83 185.425 1051.23 187.714Z" fill="#161616"/>
<path d="M1020 213.714C1015.17 213.714 1010.59 212.92 1006.5 211.501C1006.5 211.501 999.005 223.226 997 231.714C995.87 236.497 996 238.214 997 242.714C997.359 244.332 998.53 245.707 1000 245.714C1001.49 245.722 1003.1 243.737 1003.5 242.214C1006 232.714 1008.5 230.714 1008.5 230.714C1008.5 230.714 1017.05 243.723 1018 253.214C1018.54 258.668 1014.79 265.509 1020 267.214C1021.67 267.761 1022.5 270.714 1022.5 270.714V278.214C1022.5 278.214 1017.65 281.458 1016.5 284.714C1015.52 287.475 1018.22 289.841 1016.5 292.214C1014.61 294.824 1011.5 292.714 1008.5 294.214C1005.5 295.714 1003.8 299.88 1003 300.541C1002.53 297.984 1001.64 295.338 1000 293.714C997.125 290.875 993.249 292.636 990.458 289.714C986.123 285.176 992.049 279.185 988.975 273.714C986.949 270.109 983.787 269.659 981.5 266.214C978.22 261.275 981.754 255.258 977 251.714C974.819 250.089 973.208 248.965 970.5 249.214C964.586 249.758 970.738 258.944 968 264.214C965.327 269.36 959.279 269.195 957.5 274.714C955.538 280.802 960.724 284.324 961 290.714C961.203 295.412 958.969 298.126 960 302.714C961.235 308.209 963.921 310.83 968 314.714C974.455 320.861 980.319 321.588 988.975 323.714C995.853 325.404 999.939 326.269 1007 325.714C1017.16 324.916 1031.5 316.714 1031.5 316.714C1031.5 316.714 1035.97 317.331 1041 316.214C1045.5 315.214 1047.5 314.214 1052.5 309.714C1054.88 307.573 1053.5 304.714 1051.5 302.214C1049.75 300.031 1052.79 297.928 1054.5 295.714C1056.46 293.178 1058.92 293.146 1061 290.714C1064 287.214 1065.93 281.444 1063.5 280.714C1058.5 279.214 1058.24 276.544 1057 272.714C1055.55 268.221 1058.5 260.714 1058.5 260.714L1061 263.214C1061 263.214 1064 265.214 1065.5 262.214C1066.8 259.607 1064.17 252.381 1063.5 247.714C1062.83 243.048 1056.12 242.585 1052.5 238.214C1049.7 234.835 1046.5 228.714 1046.5 228.714C1046.5 228.714 1047.54 227.255 1048 226.214C1051.07 219.288 1038 209.592 1038 209.592C1032.9 212.19 1026.69 213.714 1020 213.714Z" fill="#161616"/>
<path d="M1039 168.714C1038.1 169.623 1038.4 172.045 1038 171.837C1040.66 173.192 1043.02 174.839 1044.99 176.714C1046.45 178.098 1047.7 179.607 1048.7 181.214L1050.5 179.491C1050.5 179.491 1050.06 177.987 1050.5 177.214C1051.27 175.857 1052.45 178.432 1054 178.214C1057.98 177.653 1057.27 174.565 1060 173.214C1061.48 172.483 1063.24 172.473 1064 171.837C1064.94 171.041 1063.8 169.73 1064.5 168.714C1065.63 167.076 1068.15 169.182 1069.5 167.714C1070.59 166.528 1069.75 165.137 1070.5 163.714C1071.6 161.636 1076 161.841 1075 159.714C1074.65 158.965 1073.88 158.949 1073.5 158.214C1072.77 156.819 1075.27 155.144 1074 154.214C1072.85 153.375 1071.92 155.276 1070.5 155.214C1069.27 155.161 1068.73 154.12 1067.5 154.214C1064.96 154.41 1066.52 159.323 1064 159.714C1062.6 159.933 1061.89 158.401 1060.5 158.714C1058.2 159.235 1060.34 164.547 1058 164.214C1056.76 164.038 1056.75 162.201 1055.5 162.214C1054.12 162.229 1054.22 164.074 1053 164.714C1051.1 165.711 1049.51 163.946 1047.5 164.714C1045.56 165.457 1045.42 167.426 1043.5 168.214C1041.86 168.886 1040.25 167.459 1039 168.714Z" fill="#161616"/>
<path fill-rule="evenodd" clip-rule="evenodd" d="M996.023 205.632L994.494 204.214C994.979 204.701 995.489 205.174 996.023 205.632ZM999.263 173.401C1004.8 169.86 1012.06 167.714 1020 167.714C1026.69 167.714 1032.9 169.238 1038 171.837C1040.66 173.192 1043.02 174.839 1044.99 176.714C1046.45 178.098 1047.7 179.607 1048.7 181.214C1049.96 183.241 1050.83 185.425 1051.23 187.714L1051.5 190.714C1051.5 193.167 1050.97 195.531 1050 197.747C1047.87 202.594 1043.6 206.74 1038 209.592C1032.9 212.19 1026.69 213.714 1020 213.714C1015.17 213.714 1010.59 212.92 1006.5 211.501C1002.46 210.1 998.894 208.089 996.023 205.632C996.023 205.632 992.449 209.707 990 208.714C989.679 208.584 989.471 208.4 989.263 208.218C989.048 208.028 988.835 207.84 988.5 207.714C987.495 207.336 986.747 207.988 985.983 208.654C985.251 209.293 984.503 209.945 983.5 209.714C982.925 209.582 982.568 209.273 982.205 208.96C981.867 208.669 981.525 208.374 981 208.214C979.855 207.866 978.932 208.428 978.014 208.986C977.078 209.555 976.149 210.12 975 209.714C974.247 209.449 973.838 208.954 973.422 208.449C973.043 207.99 972.657 207.524 972 207.214C970.761 206.631 969.212 207.318 967.834 207.928C966.26 208.627 964.909 209.226 964.5 207.714C964.4 207.342 964.453 207.033 964.505 206.725C964.559 206.408 964.613 206.094 964.5 205.714C964.135 204.494 962.74 204.963 961.321 205.44C959.902 205.917 958.459 206.401 958 205.214C957.749 204.565 957.994 204.012 958.241 203.457C958.484 202.91 958.728 202.36 958.5 201.714C958.261 201.038 957.518 200.776 956.829 200.532C956.051 200.258 955.341 200.007 955.5 199.214C955.768 197.872 956.893 198.046 958.036 198.222C959.023 198.375 960.023 198.529 960.5 197.714C960.647 197.463 960.686 197.226 960.724 196.993C960.766 196.733 960.808 196.478 961 196.214C961.536 195.478 962.323 195.892 963.161 196.333C963.95 196.748 964.785 197.187 965.5 196.714C965.961 196.41 966.5 195.714 966.5 195.714C966.5 195.714 965.847 193.713 965 192.714C963.952 191.478 962.481 191.583 961.002 191.689C959.543 191.793 958.076 191.898 957 190.714C956.607 190.282 956.417 189.864 956.226 189.442C956.044 189.041 955.86 188.636 955.5 188.214C954.793 187.386 953.543 187.179 952.411 186.991C951 186.756 949.77 186.552 950 185.214C950.103 184.612 950.563 184.299 951.016 183.991C951.49 183.669 951.956 183.352 952 182.714C952.058 181.881 951.298 181.547 950.529 181.208C949.772 180.874 949.005 180.536 949 179.714C948.983 176.97 950.373 177.718 951.917 178.548C953.018 179.139 954.197 179.773 955 179.214C955.296 179.009 955.469 178.746 955.634 178.494C955.85 178.166 956.054 177.857 956.5 177.714C957.282 177.464 957.663 178.104 958.078 178.804C958.434 179.404 958.816 180.048 959.5 180.214C960.296 180.408 960.907 180.072 961.525 179.732C962.12 179.405 962.722 179.074 963.5 179.214C964.342 179.366 964.811 179.91 965.284 180.459C965.739 180.988 966.199 181.522 967 181.714C967.811 181.909 968.446 181.707 969.097 181.501C969.674 181.318 970.264 181.131 971 181.214C972.338 181.365 973.161 182.169 973.98 182.97C974.811 183.782 975.64 184.592 977 184.714C979.217 184.914 982.5 183.214 982.5 183.214C982.5 183.214 981.94 182.548 981.5 182.214C980.655 181.573 979.698 181.791 978.753 182.006C977.777 182.229 976.814 182.448 976 181.714C975.513 181.275 975.381 180.744 975.248 180.213C975.116 179.684 974.984 179.154 974.5 178.714C973.818 178.094 973.03 178.132 972.232 178.171C971.471 178.208 970.699 178.246 970 177.714C969.426 177.278 969.197 176.74 968.966 176.197C968.746 175.68 968.524 175.158 968 174.714C967.286 174.109 966.344 174.139 965.455 174.166C964.407 174.198 963.434 174.228 963 173.214C962.702 172.519 962.931 171.946 963.171 171.345C963.37 170.849 963.575 170.334 963.5 169.714C963.422 169.07 962.952 168.519 962.524 168.016C961.971 167.367 961.487 166.799 962 166.214C962.473 165.675 963.373 165.904 964.287 166.138C965.113 166.349 965.952 166.563 966.5 166.214C966.74 166.062 966.877 165.885 967.016 165.706C967.147 165.537 967.28 165.367 967.5 165.214C968.703 164.381 969.559 165.853 970.436 167.36C971.314 168.869 972.212 170.414 973.5 169.714C974.033 169.425 974.248 168.941 974.46 168.465C974.685 167.96 974.906 167.463 975.5 167.214C976.606 166.751 977.144 167.837 977.717 168.994C978.267 170.105 978.85 171.282 980 171.214C980.459 171.187 980.734 170.951 981.013 170.712C981.37 170.405 981.733 170.094 982.5 170.214C983.413 170.358 984.212 171.037 985.01 171.716C985.802 172.389 986.595 173.063 987.5 173.214C988.364 173.358 989.04 173.02 989.707 172.686C990.411 172.333 991.105 171.985 992 172.214C992.571 172.36 992.93 172.663 993.294 172.97C993.634 173.256 993.977 173.545 994.5 173.714C996.273 174.288 999.263 173.401 999.263 173.401ZM997.368 174.716C997.975 174.259 998.607 173.82 999.263 173.401C999.263 173.401 998.106 174.161 997.368 174.716ZM971.749 195.561C971.128 195.74 970.471 195.93 969.75 195.964C970.059 196.136 970.312 196.297 970.552 196.449C970.995 196.731 971.391 196.982 972 197.214C972.366 197.354 972.773 197.543 973.182 197.733C974.62 198.401 976.095 199.087 976 197.714C975.933 196.74 975.791 196.286 975 195.714C973.921 194.934 972.896 195.23 971.749 195.561ZM995.547 176.214C996.109 175.71 996.699 175.223 997.316 174.756C996.6 175.3 995.547 176.214 995.547 176.214ZM986.5 184.214C985.5 184.714 984.5 184.714 984.5 184.714C984.5 184.714 985.191 185.523 985.5 185.214C986 184.714 987 184.714 987 184.714C987 184.714 986.747 184.091 986.5 184.214ZM985.5 197.214C984.864 196.913 984.167 197.881 984 198.214C984 198.214 985.5 198.214 986 198.714C986.437 199.151 987.5 198.214 987.5 198.214C987.5 198.214 986.494 198.085 986 197.714C985.903 197.641 985.843 197.559 985.785 197.479C985.711 197.378 985.64 197.281 985.5 197.214ZM978.5 198.214C979 197.714 979 196.714 979 196.714C979 196.714 979.362 196.8 979.5 197.214C979.562 197.399 980 197.714 980 197.714C980 197.714 979.747 198.091 979.5 198.214C979.151 198.389 978.5 198.214 978.5 198.214Z" fill="#161616"/>
</svg>
